HIERARCHY
ROOT Hips
{
	OFFSET 0.000000 0.000000 0.000000
	CHANNELS 6 Xposition Yposition Zposition Zrotation Yrotation Xrotation 
	JOINT LHipJoint
	{
		OFFSET 0.000000 0.000000 0.000000
		CHANNELS 3 Zrotation Yrotation Xrotation
		JOINT LeftUpLeg
		{
			OFFSET 1.363060 -1.794630 0.839290
			CHANNELS 3 Zrotation Yrotation Xrotation
			JOINT LeftLeg
			{
				OFFSET 2.448110 -6.726130 0.000000
				CHANNELS 3 Zrotation Yrotation Xrotation
				JOINT LeftFoot
				{
					OFFSET 2.562200 -7.039590 0.000000
					CHANNELS 3 Zrotation Yrotation Xrotation
					JOINT LeftToeBase
					{
						OFFSET 0.157640 -0.433110 2.322550
						CHANNELS 3 Zrotation Yrotation Xrotation
						End Site
						{
							OFFSET 0.000000 0.000000 0.000000
						}
					}
				}
			}
		}
	}
	JOINT RHipJoint
	{
		OFFSET 0.000000 0.000000 0.000000
		CHANNELS 3 Zrotation Yrotation Xrotation
		JOINT RightUpLeg
		{
			OFFSET -1.305520 -1.794630 0.839290
			CHANNELS 3 Zrotation Yrotation Xrotation
			JOINT RightLeg
			{
				OFFSET -2.542530 -6.985550 0.000000
				CHANNELS 3 Zrotation Yrotation Xrotation
				JOINT RightFoot
				{
					OFFSET -2.568260 -7.056230 0.000000
					CHANNELS 3 Zrotation Yrotation Xrotation
					JOINT RightToeBase
					{
						OFFSET -0.164730 -0.452590 2.363150
						CHANNELS 3 Zrotation Yrotation Xrotation
						End Site
						{
							OFFSET 0.000000 0.000000 0.000000
						}
					}
				}
			}
		}
	}
	JOINT LowerBack
	{
		OFFSET 0.000000 0.000000 0.000000
		CHANNELS 3 Zrotation Yrotation Xrotation
		JOINT Spine
		{
			OFFSET 0.028270 2.035590 -0.193380
			CHANNELS 3 Zrotation Yrotation Xrotation
			JOINT Spine1
			{
				OFFSET 0.056720 2.048850 -0.042750
				CHANNELS 3 Zrotation Yrotation Xrotation
				JOINT Neck
				{
					OFFSET 0.000000 0.000000 0.000000
					CHANNELS 3 Zrotation Yrotation Xrotation
					JOINT Neck1
					{
						OFFSET -0.054170 1.746240 0.172020
						CHANNELS 3 Zrotation Yrotation Xrotation
						JOINT Head
						{
							OFFSET 0.104070 1.761360 -0.123970
							CHANNELS 3 Zrotation Yrotation Xrotation
							End Site
							{
								OFFSET 0.000000 0.000000 0.000000
							}
						}
					}
				}
				JOINT LeftShoulder
				{
					OFFSET 0.000000 0.000000 0.000000
					CHANNELS 3 Zrotation Yrotation Xrotation
					JOINT LeftArm
					{
						OFFSET 3.362410 1.200890 -0.311210
						CHANNELS 3 Zrotation Yrotation Xrotation
						JOINT LeftForeArm
						{
							OFFSET 4.983000 -0.000000 -0.000000
							CHANNELS 3 Zrotation Yrotation Xrotation
							JOINT LeftHand
							{
								OFFSET 3.483560 -0.000000 -0.000000
								CHANNELS 3 Zrotation Yrotation Xrotation
								JOINT LeftFingerBase
								{
									OFFSET 0.000000 0.000000 0.000000
									CHANNELS 3 Zrotation Yrotation Xrotation
									JOINT LeftHandIndex1
									{
										OFFSET 0.715260 -0.000000 -0.000000
										CHANNELS 3 Zrotation Yrotation Xrotation
										End Site
										{
											OFFSET 0.000000 0.000000 0.000000
										}
									}
								}
								JOINT LThumb
								{
									OFFSET 0.000000 0.000000 0.000000
									CHANNELS 3 Zrotation Yrotation Xrotation
									End Site
									{
										OFFSET 0.000000 0.000000 0.000000
									}
								}
							}
						}
					}
				}
				JOINT RightShoulder
				{
					OFFSET 0.000000 0.000000 0.000000
					CHANNELS 3 Zrotation Yrotation Xrotation
					JOINT RightArm
					{
						OFFSET -3.136600 1.374050 -0.404650
						CHANNELS 3 Zrotation Yrotation Xrotation
						JOINT RightForeArm
						{
							OFFSET -5.241900 -0.000000 -0.000000
							CHANNELS 3 Zrotation Yrotation Xrotation
							JOINT RightHand
							{
								OFFSET -3.444170 -0.000000 -0.000000
								CHANNELS 3 Zrotation Yrotation Xrotation
								JOINT RightFingerBase
								{
									OFFSET 0.000000 0.000000 0.000000
									CHANNELS 3 Zrotation Yrotation Xrotation
									JOINT RightHandIndex1
									{
										OFFSET -0.622530 -0.000000 -0.000000
										CHANNELS 3 Zrotation Yrotation Xrotation
										End Site
										{
											OFFSET 0.000000 0.000000 0.000000
										}
									}
								}
								JOINT RThumb
								{
									OFFSET 0.000000 0.000000 0.000000
									CHANNELS 3 Zrotation Yrotation Xrotation
									End Site
									{
										OFFSET 0.000000 0.000000 0.000000
									}
								}
							}
						}
					}
				}
			}
		}
	}
}
MOTION
Frames: 9
Frame Time: 0.033333
-0.029519 17.145607 -0.029519 -0.045064 -20.625713 3.610468 0.366671 16.439638 11.573724 -20.029944 -14.876851 -10.662351 20.153450 -19.927143 -29.607855 0.015860 12.311362 80.717901 0.000000 0.000000 0.000000 1.049272 -31.623838 -13.546349 48.828830 10.253329 -1.023842 -26.475161 3.059028 35.824606 -0.005442 9.619913 -18.417138 0.000000 0.000000 0.000000 -2.445548 5.361625 6.817708 -4.596757 4.466112 13.133095 6.797006 4.405724 -14.887253 12.488601 -0.761736 -10.932896 -1.782151 -0.084564 -8.803412 0.000000 0.000000 0.000000 -3.355156 13.513229 17.234142 -78.757925 -5.887095 -27.870104 -143.435650 -69.366693 177.662835 11.593937 -6.594065 -1.224236 11.920385 -6.386410 -0.000000 0.000000 0.000000 0.000000 0.000000 0.000000 0.000000 -1.168205 -14.460693 2.935370 57.250180 12.190072 17.358786 48.431819 59.086779 0.215774 1.624390 7.112862 0.107578 1.622988 7.116194 0.000000 0.000000 0.000000 0.000000 0.000000 0.000000 0.000000 
-0.026214 17.171495 0.122874 0.042712 -20.318737 3.379733 1.434822 16.188673 10.828156 -21.834885 -14.267829 -8.944719 19.732588 -19.716892 -28.886967 0.036923 12.001175 78.953606 0.000000 0.000000 0.000000 0.283974 -30.821637 -13.754631 47.812190 9.346719 -0.598819 -25.045693 2.077034 35.772533 0.064992 9.614595 -19.747659 0.000000 0.000000 0.000000 -2.619496 5.224592 7.558951 -4.578304 4.344659 11.990201 6.790734 4.255822 -14.012830 12.248165 -0.778688 -10.523730 -1.771549 -0.078411 -8.410433 0.000000 0.000000 0.000000 -2.955057 13.091037 17.417664 -79.025461 -6.039308 -27.804497 -143.482070 -69.627002 177.601643 11.940598 -6.808610 -1.257045 12.279292 -6.593412 -0.000000 0.000000 0.000000 0.000000 0.000000 0.000000 0.000000 -1.384713 -14.295934 2.887660 57.764920 12.270863 17.591594 48.448059 59.960316 0.210735 1.567145 6.932068 0.105080 1.565815 6.935275 0.000000 0.000000 0.000000 0.000000 0.000000 0.000000 0.000000 
-0.020639 17.199201 0.274653 0.111238 -19.954861 3.144780 2.444757 15.916498 10.036874 -23.506260 -13.577359 -7.278407 19.177710 -19.460066 -28.098023 0.139450 11.747073 77.172740 0.000000 0.000000 0.000000 -0.455817 -29.915085 -13.941505 46.712368 8.426642 -0.176391 -23.532827 1.051972 35.631275 0.147522 9.565738 -21.005911 0.000000 0.000000 0.000000 -2.774961 5.070051 8.303015 -4.529557 4.208578 10.881124 6.770569 4.093519 -13.154529 11.996317 -0.793793 -10.130658 -1.752624 -0.071773 -8.007277 0.000000 0.000000 0.000000 -2.550136 12.661406 17.597029 -79.293452 -6.193305 -27.728194 -143.530364 -69.894723 177.539125 12.291260 -7.026163 -1.290618 12.642696 -6.803057 -0.000000 0.000000 0.000000 0.000000 0.000000 0.000000 0.000000 -1.613432 -14.140677 2.831567 58.284659 12.350671 17.830772 48.452247 60.839952 0.205956 1.511709 6.746330 0.102713 1.510478 6.749411 0.000000 0.000000 0.000000 0.000000 0.000000 0.000000 0.000000 
-0.012843 17.228279 0.425417 -0.004784 -18.789514 2.508319 3.555448 15.377844 9.236381 -24.980379 -12.667768 -5.289528 18.242031 -19.220181 -27.308022 0.430853 11.553114 75.447081 0.000000 0.000000 0.000000 -1.626050 -27.755460 -15.182766 45.144941 5.898847 1.491784 -21.220596 -0.875259 34.611633 0.519268 8.890352 -22.468480 0.000000 0.000000 0.000000 -2.723247 4.524871 9.701895 -4.329770 3.715944 9.702492 6.326817 3.648278 -12.586477 12.113751 -0.786448 -9.646908 -1.557188 -0.038863 -7.601254 0.000000 0.000000 0.000000 -1.686909 12.474273 17.840913 -79.532476 -6.213160 -27.626888 -143.500607 -70.133632 177.469047 12.645198 -7.245792 -1.328403 13.011134 -7.013536 -0.000000 0.000000 0.000000 0.000000 0.000000 0.000000 0.000000 -3.178738 -14.792149 1.920571 59.925607 14.285678 12.581795 53.675437 50.797307 0.132253 1.591116 6.619043 0.065855 1.587388 6.621692 0.000000 0.000000 0.000000 0.000000 0.000000 0.000000 0.000000 
-0.003389 17.258321 0.574801 -0.154562 -17.437339 1.839728 4.575448 14.720018 8.365339 -26.260747 -11.694983 -3.329717 17.209440 -18.939364 -26.453564 0.753082 11.411183 73.742602 0.000000 0.000000 0.000000 -2.767115 -25.231195 -16.474809 43.322760 3.185639 3.309780 -18.596239 -2.918441 33.237962 0.891135 8.127186 -23.813234 0.000000 0.000000 0.000000 -2.630177 3.913473 11.154871 -4.105775 3.166920 8.579874 5.919661 3.168345 -12.319944 12.202839 -0.788004 -8.991222 -1.382746 -0.013096 -7.117207 0.000000 0.000000 0.000000 -0.798448 12.270573 18.215695 -79.785870 -6.104534 -27.510244 -143.478588 -70.376138 177.398030 13.003349 -7.470089 -1.366775 13.384325 -7.228285 -0.000000 0.000000 0.000000 0.000000 0.000000 0.000000 0.000000 -4.716875 -15.698999 0.466941 61.143927 16.787842 7.671432 57.047022 38.375262 0.049001 1.500279 6.193743 0.024264 1.494613 6.195985 0.000000 0.000000 0.000000 0.000000 0.000000 0.000000 0.000000 
0.008162 17.288822 0.722984 -0.307871 -16.187826 1.310241 5.482872 14.050749 7.408523 -27.386933 -10.720397 -1.537786 16.179138 -18.589041 -25.533807 1.062646 11.324244 72.057828 0.000000 0.000000 0.000000 -3.716756 -22.801767 -17.424568 41.384287 0.802410 4.856562 -15.810768 -4.768077 31.692264 1.163929 7.527017 -25.045247 0.000000 0.000000 0.000000 -2.625525 3.375618 12.462372 -3.696388 2.701840 7.320311 5.632410 2.763054 -11.900197 12.115392 -0.823615 -8.349986 -1.393847 -0.019400 -6.513928 0.000000 0.000000 0.000000 -0.168987 11.905572 18.595742 -80.045300 -6.010857 -27.415484 -143.492998 -70.648132 177.326473 13.370540 -7.698179 -1.405454 13.766849 -7.446606 -0.000000 0.000000 0.000000 0.000000 0.000000 0.000000 0.000000 -5.672188 -16.236120 -0.663431 61.866532 18.491064 5.544356 58.240380 30.796092 0.006161 1.346649 5.568431 0.002902 1.341038 5.570351 0.000000 0.000000 0.000000 0.000000 0.000000 0.000000 0.000000 
0.021420 17.319481 0.869681 -0.453220 -14.846120 0.784594 6.274245 13.303700 6.399479 -28.350906 -9.719251 0.179201 15.098116 -18.187068 -24.569315 1.383103 11.285583 70.420282 0.000000 0.000000 0.000000 -4.563600 -20.173518 -18.313017 39.242891 -1.598807 6.464144 -12.814823 -6.562424 29.861109 1.426901 6.888945 -26.116794 0.000000 0.000000 0.000000 -2.594874 2.822190 13.744141 -3.291547 2.233091 6.091186 5.354381 2.350164 -11.642719 11.985852 -0.861266 -7.574645 -1.415634 -0.028686 -5.873373 0.000000 0.000000 0.000000 0.468705 11.444826 19.068859 -80.310450 -5.857136 -27.325114 -143.520111 -70.935631 177.252947 13.743164 -7.929329 -1.445263 14.155492 -7.667496 -0.000000 0.000000 0.000000 0.000000 0.000000 0.000000 0.000000 -6.581526 -16.854950 -2.145860 62.590276 20.440645 3.977373 58.994533 22.333442 -0.024924 1.193185 4.814815 -0.012579 1.188404 4.816412 0.000000 0.000000 0.000000 0.000000 0.000000 0.000000 0.000000 
0.035573 17.349942 1.014874 -0.565085 -13.417560 0.303955 6.926705 12.463704 5.318774 -29.169593 -8.712440 1.803689 14.001243 -17.734204 -23.565889 1.698776 11.285951 68.835552 0.000000 0.000000 0.000000 -5.293957 -17.421419 -19.119102 36.924486 -3.962063 8.094523 -9.646228 -8.246462 27.779839 1.676378 6.218933 -27.013472 0.000000 0.000000 0.000000 -2.512483 2.341715 15.059360 -2.799798 1.876081 4.568177 4.714718 2.005418 -10.996155 10.818823 -0.403571 -5.697306 0.449484 0.305437 -7.691250 0.000000 0.000000 0.000000 1.207079 10.550433 19.557435 -80.493833 -5.945691 -27.251062 -143.630782 -71.267577 177.181757 14.104049 -8.163855 -1.483872 14.532629 -7.891867 -0.000000 0.000000 0.000000 0.000000 0.000000 0.000000 0.000000 -6.891172 -17.814402 -3.775236 63.397730 22.170586 3.178072 60.797387 18.889665 0.513124 -2.231399 -9.853103 0.257584 -2.271064 -9.854115 -0.000000 0.000000 0.000000 0.000000 0.000000 0.000000 0.000000 
0.050646 17.379927 1.158310 -0.647530 -11.951490 -0.149963 7.457688 11.564516 4.205845 -29.855676 -7.710084 3.334768 12.907200 -17.233984 -22.536036 2.004855 11.320089 67.313776 0.000000 0.000000 0.000000 -5.881751 -14.599437 -19.787423 34.460766 -6.243341 9.734359 -6.372615 -9.758549 25.497256 1.911032 5.527859 -27.719597 0.000000 0.000000 0.000000 -2.423709 1.909521 16.287618 -2.312053 1.577968 3.149180 4.169157 1.710396 -10.576444 9.635430 0.035670 -3.774610 2.115622 0.640821 -9.325866 0.000000 0.000000 0.000000 1.857211 9.481658 20.153498 -80.682952 -5.988051 -27.156865 -143.748227 -71.620079 177.108947 14.467437 -8.400669 -1.523436 14.912951 -8.118052 -0.000000 0.000000 0.000000 0.000000 0.000000 0.000000 0.000000 -6.989598 -18.727742 -5.705266 64.413582 23.980013 3.254135 61.854601 14.901233 2.057172 -4.740945 -23.717754 1.052316 -5.105192 -23.711296 0.000000 0.000000 0.000000 0.000000 0.000000 0.000000 0.000000 
